<svg width="72" height="72" fill="none" xmlns="http://www.w3.org/2000/svg"><path d="M69.807 40.71c-7.564-11.582-6.76-23.454-10.406-29.036-3.646-5.582-14.512-15.206-40.186 1.564S.07 48.238 4.083 54.376C22.859 83.12 83.205 61.222 69.807 40.71Z" fill="#ECEFF2"/><path d="m61.912 42.033 1.414-1.415 2.829 2.829-1.415 1.414-2.828-2.828ZM53.781 33.903l1.415-1.414 2.828 2.828-1.414 1.414-2.829-2.828ZM62.27 35.327l2.828-2.828 1.414 1.414-2.828 2.828-1.414-1.414ZM37.98 66.16c-1.653 0-3-1.346-3-3s1.347-3 3-3c1.655 0 3 1.346 3 3s-1.345 3-3 3Zm0-4a1 1 0 1 0 .001 2.001 1 1 0 0 0 0-2Z" fill="#C2C8CD"/><path d="M39.06 33.5H16.5v21h29v-21h-6.44Z" fill="#F3F3F1"/><path d="M50.5 40.6h-5v13.9h13v-5.9a8 8 0 0 0-8-8Z" fill="#2A6CEA"/><path d="M27 58.5a3.5 3.5 0 1 0 0-7 3.5 3.5 0 0 0 0 7ZM51 58.5a3.5 3.5 0 1 0 0-7 3.5 3.5 0 0 0 0 7Z" fill="#F3F3F1"/><path d="M25 36.5c6.351 0 11.5-5.149 11.5-11.5S31.351 13.5 25 13.5 13.5 18.649 13.5 25 18.649 36.5 25 36.5Z" fill="#2A6CEA"/><path d="M21 36h-5v19h5V36Z" fill="#E1E6EA"/><path d="M45.5 40.6v13.9H50V40.6h-4.5Z" fill="#191C1F" fill-opacity=".1"/><path d="M28 55c0-1.072.492-2.018 1.25-2.66A3.47 3.47 0 0 0 27 51.5a3.501 3.501 0 0 0-3.5 3.5c0 1.932 1.568 3.5 3.5 3.5a3.47 3.47 0 0 0 2.25-.84A3.476 3.476 0 0 1 28 55ZM52 55c0-1.072.492-2.018 1.25-2.66A3.47 3.47 0 0 0 51 51.5a3.501 3.501 0 0 0-3.5 3.5c0 1.932 1.568 3.5 3.5 3.5a3.47 3.47 0 0 0 2.25-.84A3.476 3.476 0 0 1 52 55Z" fill="#D5DBE1"/><path d="M18 25c0-5.58 3.976-10.23 9.25-11.276A11.431 11.431 0 0 0 25 13.5c-6.352 0-11.5 5.148-11.5 11.5S18.648 36.5 25 36.5c.77 0 1.522-.078 2.25-.224C21.976 35.23 18 30.58 18 25Z" fill="#191C1F" fill-opacity=".1"/><path d="M25 30.5c-.384 0-.768-.146-1.06-.44l-6-6 2.121-2.122 4.94 4.94 4.94-4.94 2.122 2.122-6 6c-.296.294-.68.44-1.063.44Z" fill="#fff"/><path d="M25 56h-8.5a1.5 1.5 0 0 1-1.5-1.5V38.78h3V53h7v3ZM45.499 56h-16.54v-3h15.04V35h-5.22v-3h6.72a1.5 1.5 0 0 1 1.5 1.5v21a1.5 1.5 0 0 1-1.5 1.5Z" fill="#191C1F"/><path d="M58.5 56h-5.542v-3H57v-4.4c0-3.584-2.916-6.5-6.5-6.5H47V53h2v3h-3.5a1.5 1.5 0 0 1-1.5-1.5V40.6a1.5 1.5 0 0 1 1.5-1.5h5c5.238 0 9.5 4.262 9.5 9.5v5.9a1.5 1.5 0 0 1-1.5 1.5ZM27 60c-2.756 0-5-2.244-5-5s2.244-5 5-5 5 2.244 5 5-2.244 5-5 5Zm0-7c-1.102 0-2 .898-2 2 0 1.102.898 2 2 2 1.102 0 2-.898 2-2 0-1.102-.898-2-2-2Z" fill="#191C1F"/><path d="M51 60c-2.756 0-5-2.244-5-5s2.244-5 5-5 5 2.244 5 5-2.244 5-5 5Zm0-7c-1.102 0-2 .898-2 2 0 1.102.898 2 2 2 1.102 0 2-.898 2-2 0-1.102-.898-2-2-2Z" fill="#191C1F"/></svg>